HIERARCHY
ROOT Hips
{
	OFFSET 0.00000 0.00000 0.00000
	CHANNELS 6 Xposition Yposition Zposition Zrotation Yrotation Xrotation 
	JOINT LHipJoint
	{
		OFFSET 0 0 0
		CHANNELS 3 Zrotation Yrotation Xrotation
		JOINT LeftUpLeg
		{
			OFFSET 1.58895 -1.83665 0.71753
			CHANNELS 3 Zrotation Yrotation Xrotation
			JOINT LeftLeg
			{
				OFFSET 2.50528 -6.88321 0.00000
				CHANNELS 3 Zrotation Yrotation Xrotation
				JOINT LeftFoot
				{
					OFFSET 2.63244 -7.23257 0.00000
					CHANNELS 3 Zrotation Yrotation Xrotation
					JOINT LeftToeBase
					{
						OFFSET 0.23691 -0.65090 1.72750
						CHANNELS 3 Zrotation Yrotation Xrotation
						End Site
						{
							OFFSET 0.00000 -0.00000 0.92561
						}
					}
				}
			}
		}
	}
	JOINT RHipJoint
	{
		OFFSET 0 0 0
		CHANNELS 3 Zrotation Yrotation Xrotation
		JOINT RightUpLeg
		{
			OFFSET -1.51435 -1.83665 0.71753
			CHANNELS 3 Zrotation Yrotation Xrotation
			JOINT RightLeg
			{
				OFFSET -2.54551 -6.99375 0.00000
				CHANNELS 3 Zrotation Yrotation Xrotation
				JOINT RightFoot
				{
					OFFSET -2.66027 -7.30903 0.00000
					CHANNELS 3 Zrotation Yrotation Xrotation
					JOINT RightToeBase
					{
						OFFSET -0.22981 -0.63138 2.03959
						CHANNELS 3 Zrotation Yrotation Xrotation
						End Site
						{
							OFFSET -0.00000 -0.00000 1.07060
						}
					}
				}
			}
		}
	}
	JOINT LowerBack
	{
		OFFSET 0 0 0
		CHANNELS 3 Zrotation Yrotation Xrotation
		JOINT Spine
		{
			OFFSET -0.02651 1.86275 -0.11152
			CHANNELS 3 Zrotation Yrotation Xrotation
			JOINT Spine1
			{
				OFFSET 0.01019 1.86224 0.04087
				CHANNELS 3 Zrotation Yrotation Xrotation
				JOINT Neck
				{
					OFFSET 0 0 0
					CHANNELS 3 Zrotation Yrotation Xrotation
					JOINT Neck1
					{
						OFFSET -0.01926 1.80512 0.08867
						CHANNELS 3 Zrotation Yrotation Xrotation
						JOINT Head
						{
							OFFSET 0.05516 1.76451 -0.38475
							CHANNELS 3 Zrotation Yrotation Xrotation
							End Site
							{
								OFFSET 0.01592 1.82587 -0.14001
							}
						}
					}
				}
				JOINT LeftShoulder
				{
					OFFSET 0 0 0
					CHANNELS 3 Zrotation Yrotation Xrotation
					JOINT LeftArm
					{
						OFFSET 3.47116 1.51376 0.14491
						CHANNELS 3 Zrotation Yrotation Xrotation
						JOINT LeftForeArm
						{
							OFFSET 4.78095 -0.00000 0.00000
							CHANNELS 3 Zrotation Yrotation Xrotation
							JOINT LeftHand
							{
								OFFSET 3.58615 -0.00000 -0.00000
								CHANNELS 3 Zrotation Yrotation Xrotation
								JOINT LeftFingerBase
								{
									OFFSET 0 0 0
									CHANNELS 3 Zrotation Yrotation Xrotation
									JOINT LeftHandIndex1
									{
										OFFSET 0.65981 -0.00000 0.00000
										CHANNELS 3 Zrotation Yrotation Xrotation
										End Site
										{
											OFFSET 0.53196 -0.00000 0.00000
										}
									}
								}
								JOINT LThumb
								{
									OFFSET 0 0 0
									CHANNELS 3 Zrotation Yrotation Xrotation
									End Site
									{
										OFFSET 0.54008 -0.00000 0.54008
									}
								}
							}
						}
					}
				}
				JOINT RightShoulder
				{
					OFFSET 0 0 0
					CHANNELS 3 Zrotation Yrotation Xrotation
					JOINT RightArm
					{
						OFFSET -3.31725 1.61216 0.35156
						CHANNELS 3 Zrotation Yrotation Xrotation
						JOINT RightForeArm
						{
							OFFSET -4.48913 -0.00000 0.00000
							CHANNELS 3 Zrotation Yrotation Xrotation
							JOINT RightHand
							{
								OFFSET -3.70510 -0.00000 0.00000
								CHANNELS 3 Zrotation Yrotation Xrotation
								JOINT RightFingerBase
								{
									OFFSET 0 0 0
									CHANNELS 3 Zrotation Yrotation Xrotation
									JOINT RightHandIndex1
									{
										OFFSET -0.44914 -0.00000 0.00000
										CHANNELS 3 Zrotation Yrotation Xrotation
										End Site
										{
											OFFSET -0.36211 -0.00000 0.00000
										}
									}
								}
								JOINT RThumb
								{
									OFFSET 0 0 0
									CHANNELS 3 Zrotation Yrotation Xrotation
									End Site
									{
										OFFSET -0.36763 -0.00000 0.36763
									}
								}
							}
						}
					}
				}
			}
		}
	}
}
MOTION
Frames: 15
Frame Time: .0083333
-1.0051 17.9452 6.4265 -4.5041 -4.8881 -3.6445 0.0000 0.0000 0.0000 -11.3696 2.8257 26.5161 1.1117 -6.6987 -18.8258 -0.9373 17.8119 -12.9369 0.2744 -3.3697 -9.3097 0.0000 0.0000 0.0000 0.0000 0.0000 0.0000 0.0000 0.0000 0.0000 -0.0000 -0.0000 0.0000 -0.0000 -0.0000 0.0000 3.4512 -1.1395 3.6914 2.2941 -1.2389 -2.1872 0.5290 -0.6814 -4.3561 -5.1971 -2.4696 -4.4279 -16.9313 2.1484 31.7953 -5.2383 -1.5960 11.3263 -0.0000 0.0000 0.0000 18.7772 -41.7506 -36.8722 125.8061 -54.5530 -90.4418 -0.0000 0.0000 -89.4343 -34.3747 -6.5101 4.4349 -7.1250 0.0000 -0.0000 -39.2955 19.8995 32.2752 -0.0000 0.0000 0.0000 2.4780 32.0308 -15.2803 -158.0022 32.9746 -113.4153 0.0000 -0.0000 -61.1803 -37.3706 -52.7845 31.3088 7.1250 -0.0000 -0.0000 72.4515 -86.4008 -68.9813
-1.0072 17.9452 6.4305 -4.5284 -4.9097 -3.6071 0.0000 0.0000 0.0000 -11.3377 2.8234 26.4828 1.1096 -6.6925 -18.8074 -0.9346 17.8027 -12.9730 0.2643 -3.3073 -9.1355 0.0000 0.0000 0.0000 0.0000 0.0000 0.0000 0.0000 0.0000 0.0000 -0.0000 -0.0000 0.0000 -0.0000 -0.0000 0.0000 3.4149 -1.1009 3.7409 2.3000 -1.1869 -2.1787 0.5524 -0.6545 -4.3735 -5.4250 -2.5217 -4.3322 -16.7418 2.0523 31.8548 -5.1354 -1.6455 11.3243 0.0000 0.0000 0.0000 19.0696 -41.6332 -37.8659 126.1722 -54.4273 -90.7398 -0.0000 0.0000 -88.8126 -34.2353 -6.9855 4.7311 -7.1250 0.0000 -0.0000 -39.1008 19.5100 32.4857 0.0000 0.0000 0.0000 2.6552 32.3051 -15.8222 -158.1043 32.8589 -113.4709 0.0000 -0.0000 -60.4239 -36.6245 -52.0277 30.3691 7.1250 -0.0000 -0.0000 59.3694 -86.0090 -55.8687
-1.0090 17.9458 6.4330 -4.5587 -4.9309 -3.5963 0.0000 0.0000 0.0000 -11.2911 2.8583 26.4728 1.1088 -6.6901 -18.8005 -0.9288 17.7741 -13.0236 0.2501 -3.2176 -8.8852 0.0000 0.0000 0.0000 0.0000 0.0000 0.0000 0.0000 0.0000 0.0000 -0.0000 -0.0000 0.0000 -0.0000 -0.0000 0.0000 3.3829 -1.0679 3.8493 2.2920 -1.1392 -2.1804 0.5608 -0.6305 -4.4355 -5.4854 -2.5865 -4.1617 -16.7239 1.9369 31.8309 -5.1222 -1.6946 11.2706 -0.0000 -0.0000 0.0000 19.1465 -41.5693 -38.6207 126.7237 -54.2344 -91.1878 -0.0000 0.0000 -88.0115 -34.1989 -7.5060 5.0730 -7.1250 0.0000 -0.0000 -38.9327 19.0469 32.8249 -0.0000 -0.0000 0.0000 3.0471 32.6243 -16.2337 -158.2168 32.7311 -113.5318 0.0000 -0.0000 -59.5927 -35.5940 -50.8305 29.0269 7.1250 -0.0000 -0.0000 44.3284 -85.1175 -40.8086
-1.0104 17.9458 6.4349 -4.6017 -4.9131 -3.6000 0.0000 0.0000 0.0000 -11.2429 2.8320 26.4900 1.1083 -6.6886 -18.7961 -0.9313 17.7959 -13.0358 0.2523 -3.2317 -8.9244 0.0000 0.0000 0.0000 0.0000 0.0000 0.0000 0.0000 0.0000 0.0000 -0.0000 -0.0000 0.0000 -0.0000 -0.0000 0.0000 3.3473 -1.0487 3.9882 2.3041 -1.1070 -2.2028 0.5941 -0.6143 -4.5362 -5.6381 -2.6926 -4.1769 -16.6866 1.8189 31.9699 -5.1043 -1.7720 11.3242 -0.0000 0.0000 0.0000 18.9527 -41.4786 -39.1454 127.4971 -53.9564 -91.8143 -0.0000 0.0000 -87.0400 -34.0982 -7.9797 5.3691 -7.1250 0.0000 -0.0000 -38.7574 18.6469 33.0611 -0.0000 0.0000 0.0000 3.5441 33.0030 -16.5974 -158.3269 32.6056 -113.5912 0.0000 -0.0000 -58.4051 -34.8072 -49.1670 27.7446 7.1250 -0.0000 -0.0000 30.7988 -83.7925 -27.4721
-1.0120 17.9453 6.4375 -4.6272 -4.8420 -3.6077 0.0000 0.0000 0.0000 -11.2132 2.7582 26.5134 1.1095 -6.6921 -18.8065 -0.9330 17.8022 -13.0148 0.2561 -3.2559 -8.9920 0.0000 0.0000 0.0000 0.0000 0.0000 0.0000 0.0000 0.0000 0.0000 -0.0000 -0.0000 0.0000 -0.0000 -0.0000 0.0000 3.3000 -1.0342 4.1084 2.3206 -1.0826 -2.2272 0.6388 -0.6014 -4.6283 -6.0150 -2.7804 -4.1494 -16.3789 1.6851 32.1419 -4.9445 -1.8538 11.3830 0.0000 -0.0000 0.0000 18.8325 -41.4516 -39.8415 128.2289 -53.6853 -92.4050 -0.0000 0.0000 -85.8880 -34.1075 -8.4840 5.7058 -7.1250 0.0000 -0.0000 -38.6160 18.1841 33.4226 0.0000 -0.0000 0.0000 4.2030 33.4917 -16.9271 -158.3853 32.5388 -113.6227 0.0000 -0.0000 -56.7372 -34.0983 -47.0427 26.3573 7.1250 -0.0000 -0.0000 20.2571 -81.8817 -17.2645
-1.0137 17.9453 6.4401 -4.6192 -4.7746 -3.6006 0.0000 0.0000 0.0000 -11.2296 2.6517 26.5418 1.1129 -6.7020 -18.8354 -0.9403 17.8546 -13.0139 0.2476 -3.2017 -8.8409 0.0000 0.0000 0.0000 0.0000 0.0000 0.0000 0.0000 0.0000 0.0000 -0.0000 -0.0000 0.0000 -0.0000 -0.0000 0.0000 3.2557 -0.9996 4.1585 2.2878 -1.0378 -2.2284 0.6269 -0.5786 -4.6570 -6.1510 -2.9087 -3.9748 -16.2886 1.4714 32.1467 -4.9012 -1.9503 11.3343 -0.0000 -0.0000 0.0000 18.8621 -41.5202 -40.7365 128.9231 -53.4207 -92.9635 -0.0000 0.0000 -84.6715 -34.2088 -8.9651 6.0473 -7.1250 0.0000 -0.0000 -38.5172 17.7132 33.8546 -0.0000 -0.0000 0.0000 5.2047 34.0991 -17.2085 -158.4107 32.5098 -113.6363 0.0000 -0.0000 -54.6648 -32.9196 -44.2485 24.3110 7.1250 -0.0000 -0.0000 13.1510 -78.9694 -10.4190
-1.0153 17.9473 6.4423 -4.6506 -4.7283 -3.5584 0.0000 0.0000 0.0000 -11.1992 2.5818 26.5282 1.1152 -6.7087 -18.8551 -0.9483 17.9057 -12.9892 0.2551 -3.2500 -8.9754 0.0000 0.0000 0.0000 0.0000 0.0000 0.0000 0.0000 0.0000 0.0000 -0.0000 -0.0000 0.0000 -0.0000 -0.0000 0.0000 3.2625 -0.9756 4.1693 2.2458 -1.0066 -2.2309 0.5773 -0.5640 -4.6661 -5.8256 -3.1669 -3.7357 -16.8671 1.1302 31.8393 -5.1828 -2.1018 11.1321 0.0000 -0.0000 0.0000 18.7850 -41.5847 -41.5377 129.6337 -53.1422 -93.5331 -0.0000 0.0000 -83.5711 -34.1417 -9.4747 6.3693 -7.1250 0.0000 -0.0000 -38.3516 17.2703 34.1325 0.0000 -0.0000 0.0000 6.5541 34.9235 -17.4426 -158.3741 32.5517 -113.6166 0.0000 -0.0000 -52.5898 -31.2964 -40.4753 21.5349 7.1250 -0.0000 -0.0000 8.5956 -74.7984 -6.0513
-1.0169 17.9497 6.4443 -4.6990 -4.6873 -3.4987 0.0000 0.0000 0.0000 -11.1407 2.5611 26.4738 1.1166 -6.7128 -18.8673 -0.9497 17.8998 -12.9304 0.2831 -3.4222 -9.4564 0.0000 0.0000 0.0000 0.0000 0.0000 0.0000 0.0000 0.0000 0.0000 -0.0000 -0.0000 0.0000 -0.0000 -0.0000 0.0000 3.2236 -0.9748 4.0200 2.2408 -1.0188 -2.1443 0.5903 -0.5670 -4.4903 -6.0093 -3.3997 -3.7397 -16.6075 0.7410 31.8360 -5.0846 -2.2732 11.1024 0.0000 -0.0000 0.0000 18.6552 -41.7080 -42.4139 130.2074 -52.9115 -93.9914 -0.0000 0.0000 -82.6650 -33.7191 -10.1576 6.7128 -7.1250 0.0000 -0.0000 -38.0103 16.7822 34.1638 0.0000 -0.0000 0.0000 8.0915 35.9920 -17.7697 -158.1857 32.7665 -113.5150 0.0000 -0.0000 -50.9223 -29.3945 -35.8099 18.2428 7.1250 -0.0000 -0.0000 6.0782 -69.5202 -3.5720
-1.0191 17.9511 6.4457 -4.6799 -4.6547 -3.4469 0.0000 0.0000 0.0000 -11.1581 2.5387 26.4192 1.1191 -6.7202 -18.8891 -0.9570 17.9331 -12.8582 0.2903 -3.4648 -9.5755 0.0000 0.0000 0.0000 0.0000 0.0000 0.0000 0.0000 0.0000 0.0000 -0.0000 -0.0000 0.0000 -0.0000 -0.0000 0.0000 2.9969 -0.9516 3.5158 2.2817 -1.0357 -1.8101 0.7443 -0.5614 -3.8517 -6.3951 -3.4641 -4.3717 -16.1961 0.7069 32.0292 -4.8977 -2.3229 11.3176 -0.0000 0.0000 0.0000 18.6566 -41.9367 -43.7241 130.6496 -52.7301 -94.3437 -0.0000 0.0000 -82.0471 -32.9553 -10.9976 7.0502 -7.1250 0.0000 -0.0000 -37.4984 16.2497 33.9548 -0.0000 0.0000 0.0000 9.5916 37.2423 -18.4289 -157.7691 33.2370 -113.2881 0.0000 -0.0000 -49.8849 -27.0571 -30.7221 14.6249 7.1250 -0.0000 -0.0000 5.4543 -63.6158 -2.4660
-1.0224 17.9527 6.4463 -4.6713 -4.6266 -3.3978 0.0000 0.0000 0.0000 -11.1568 2.5213 26.3587 1.1208 -6.7252 -18.9036 -0.9647 17.9721 -12.7954 0.2808 -3.4082 -9.4174 0.0000 0.0000 0.0000 0.0000 0.0000 0.0000 0.0000 0.0000 0.0000 -0.0000 -0.0000 0.0000 -0.0000 -0.0000 0.0000 3.1415 -0.8627 3.9517 2.1170 -0.8806 -2.1915 0.4965 -0.4983 -4.4989 -6.9591 -3.6018 -4.1036 -15.5581 0.4439 32.4916 -4.6078 -2.4597 11.4444 0.0000 -0.0000 0.0000 17.8938 -42.7276 -43.7791 131.1098 -52.5380 -94.7095 -0.0000 0.0000 -81.9459 -31.7636 -11.8588 7.2510 -7.1250 0.0000 -0.0000 -36.8063 15.8023 33.3518 0.0000 -0.0000 0.0000 12.3888 37.9991 -17.7299 -157.1888 33.8817 -112.9672 0.0000 -0.0000 -49.5533 -24.5282 -25.4440 11.0921 7.1250 -0.0000 -0.0000 5.7843 -57.4946 -1.7737
-1.0254 17.9542 6.4472 -4.7081 -4.5965 -3.3487 0.0000 0.0000 0.0000 -11.0964 2.5366 26.2844 1.1205 -6.7240 -18.9003 -0.9661 17.9595 -12.7094 0.2966 -3.5018 -9.6792 0.0000 0.0000 0.0000 0.0000 0.0000 0.0000 0.0000 0.0000 0.0000 -0.0000 -0.0000 0.0000 -0.0000 -0.0000 0.0000 3.1937 -0.8064 4.0133 2.0658 -0.7963 -2.3348 0.4110 -0.4615 -4.6838 -7.5033 -3.8103 -3.7018 -14.8914 -0.0188 32.5563 -4.2939 -2.6519 11.3724 -0.0000 -0.0000 0.0000 16.9823 -43.4363 -43.9877 131.4049 -52.4129 -94.9435 -0.0000 0.0000 -81.9934 -30.3330 -12.7481 7.3571 -7.1250 0.0000 -0.0000 -35.9923 15.3582 32.5661 -0.0000 -0.0000 0.0000 15.0383 39.1294 -17.0231 -156.2838 34.8627 -112.4563 0.0000 -0.0000 -49.5039 -22.4418 -19.2768 7.7645 7.1250 -0.0000 -0.0000 5.8607 -50.6149 -0.8133
-1.0277 17.9553 6.4474 -4.7196 -4.5991 -3.3153 0.0000 0.0000 0.0000 -11.0675 2.5885 26.2196 1.1189 -6.7196 -18.8873 -0.9663 17.9389 -12.6213 0.3242 -3.6595 -10.1207 0.0000 0.0000 0.0000 0.0000 0.0000 0.0000 0.0000 0.0000 0.0000 -0.0000 -0.0000 0.0000 -0.0000 -0.0000 0.0000 3.1761 -0.7315 3.8749 2.0420 -0.7053 -2.3311 0.3866 -0.4154 -4.5994 -8.1217 -3.9829 -3.3200 -13.8759 -0.5339 32.5133 -3.8336 -2.8316 11.2659 0.0000 0.0000 0.0000 16.0634 -44.1204 -44.3071 131.4520 -52.3929 -94.9808 -0.0000 0.0000 -82.2559 -28.9061 -13.7344 7.4687 -7.1250 0.0000 -0.0000 -35.1379 14.7868 31.8664 0.0000 0.0000 0.0000 17.4987 40.5188 -16.2287 -155.1128 36.0885 -111.7766 0.0000 -0.0000 -49.7894 -21.5080 -17.6948 6.8301 7.1250 -0.0000 -0.0000 6.3482 -48.8035 -0.5977
-1.0293 17.9568 6.4466 -4.7068 -4.6450 -3.2991 0.0000 0.0000 0.0000 -11.0817 2.6342 26.1800 1.1164 -6.7123 -18.8658 -0.9704 17.9594 -12.5872 0.3414 -3.7545 -10.3870 0.0000 0.0000 0.0000 0.0000 0.0000 0.0000 0.0000 0.0000 0.0000 -0.0000 -0.0000 0.0000 -0.0000 -0.0000 0.0000 3.1029 -0.6482 3.7239 2.0415 -0.6062 -2.3132 0.4168 -0.3629 -4.4922 -8.6676 -4.1249 -3.0146 -12.6703 -1.0573 32.5174 -3.3248 -2.9918 11.1997 -0.0000 -0.0000 0.0000 14.9591 -44.7917 -44.4171 131.2879 -52.4627 -94.8507 -0.0000 0.0000 -82.7383 -27.1747 -14.7519 7.4476 -7.1250 0.0000 -0.0000 -34.1225 14.2084 30.9472 -0.0000 -0.0000 0.0000 19.7807 41.8938 -15.0786 -153.7274 37.4766 -110.9470 0.0000 -0.0000 -50.7253 -19.8266 -19.5992 6.8959 7.1250 -0.0000 -0.0000 8.5228 -50.5180 -1.1663
-1.0302 17.9586 6.4444 -4.6644 -4.7029 -3.2946 0.0000 0.0000 0.0000 -11.1386 2.6602 26.1523 1.1140 -6.7052 -18.8448 -0.9792 18.0184 -12.5696 0.3578 -3.8428 -10.6348 0.0000 0.0000 0.0000 0.0000 0.0000 0.0000 0.0000 0.0000 0.0000 -0.0000 -0.0000 0.0000 -0.0000 -0.0000 0.0000 2.9783 -0.5847 3.5853 2.0528 -0.5346 -2.3102 0.4908 -0.3227 -4.4076 -8.9200 -4.4828 -2.7117 -11.6466 -1.8935 32.4974 -2.9669 -3.2809 11.1127 0.0000 0.0000 0.0000 13.6604 -45.4609 -44.1670 130.8646 -52.6408 -94.5147 -0.0000 0.0000 -83.1633 -24.8897 -15.6989 7.1556 -7.1250 0.0000 -0.0000 -32.8355 13.7324 29.5815 0.0000 0.0000 0.0000 21.9228 43.1694 -13.3918 -152.0825 39.0402 -109.9283 0.0000 -0.0000 -52.5957 -18.8527 -20.2197 6.7306 7.1250 -0.0000 -0.0000 9.6791 -50.9938 -1.4408
-1.0301 17.9599 6.4407 -4.6239 -4.7770 -3.3106 0.0000 0.0000 0.0000 -11.2011 2.6696 26.1616 1.1133 -6.7031 -18.8388 -0.9915 18.1115 -12.5871 0.3665 -3.8889 -10.7644 0.0000 0.0000 0.0000 0.0000 0.0000 0.0000 0.0000 0.0000 0.0000 -0.0000 -0.0000 0.0000 -0.0000 -0.0000 0.0000 2.8760 -0.5279 3.4509 2.0732 -0.4707 -2.2789 0.5624 -0.2865 -4.2964 -9.0983 -4.8473 -2.7625 -10.5522 -2.7001 32.6714 -2.6189 -3.5596 11.1853 -0.0000 0.0000 0.0000 12.3086 -46.0295 -43.6490 130.1840 -52.9210 -93.9727 -0.0000 0.0000 -83.6093 -22.4258 -16.5378 6.7000 -7.1250 0.0000 -0.0000 -31.4435 13.3046 28.0929 -0.0000 0.0000 0.0000 23.7163 44.3532 -11.4059 -150.1071 40.8014 -108.6605 0.0000 -0.0000 -55.2890 -16.1738 -22.9535 6.4532 7.1250 -0.0000 -0.0000 13.3957 -53.2779 -2.7666
